<svg xmlns="http://www.w3.org/2000/svg" width="11" height="11"><path fill-rule="evenodd" fill="#6D6C6C" d="M5.499.1C2.466.1 0 2.465 0 5.499a5.504 5.504 0 0 0 5.499 5.499c3.034 0 5.5-2.466 5.5-5.499C10.999 2.465 8.533.1 5.499.1Zm0 .616a4.777 4.777 0 0 1 4.783 4.783 4.777 4.777 0 0 1-4.783 4.782A4.777 4.777 0 0 1 .717 5.499 4.777 4.777 0 0 1 5.499.716Zm0 .837a.358.358 0 0 0-.358.359v3.587c0 .198.16.359.358.359h3.348c.603 0 .359-.161.359-.359 0-.199.244-.359-.359-.359H5.858V1.912a.359.359 0 0 0-.359-.359Z"/></svg>