<svg version="1.2" xmlns="http://www.w3.org/2000/svg" width="82" height="14"><path d="M7.5 0 10 4.4l5 .9L11.5 9l.6 5-4.6-2.1L2.9 14l.6-5L0 5.3l5-.9L7.5 0m17 0L27 4.4l5 .9L28.5 9l.6 5-4.6-2.1-4.6 2.1.6-5L17 5.3l5-.9L24.5 0m17 0L44 4.4l5 .9L45.5 9l.6 5-4.6-2.1-4.6 2.1.6-5L34 5.3l5-.9L41.5 0m17 0L61 4.4l5 .9L62.5 9l.6 5-4.6-2.1-4.6 2.1.6-5L51 5.3l5-.9L58.5 0" style="fill:#f2ca24"/><path d="M74.5 0 77 4.4l5 .9L78.5 9l.6 5-4.6-2.1-4.6 2.1.6-5L67 5.3l5-.9L74.5 0" style="fill:#f2ca24;stroke:#f2ca24;stroke-linejoin:round"/></svg>